<svg version="1.1" xmlns="http://www.w3.org/2000/svg" xmlns:xlink="http://www.w3.org/1999/xlink" width="800" height="800"><defs/><g transform="scale(2,2)"><g id="background-522bc2f2"><rect fill="white" stroke="none" x="0" y="0" width="400" height="400" class="dcg-svg-background"/></g><g id="background-images-522bc2f2"/><g id="graphpaper-522bc2f2"><g id="axis-522bc2f2"><g><g><path fill="none" stroke="rgb(0,0,0)" class="dcg-svg-tickmark" paint-order="fill stroke markers" d="" stroke-opacity="0.9" stroke-miterlimit="2" stroke-width="1.5" stroke-dasharray=""/></g></g></g></g><g id="expressions-522bc2f2"><g id="sketch-522bc2f2"><title/><path fill="#2d70b3" stroke="none" paint-order="stroke fill markers" d="" fill-opacity="0.4"/><g><path fill="none" stroke="#2d70b3" class="dcg-svg-curve" paint-order="fill stroke markers" d=" M 88.6990806160904 254.20494938508963 L 88.6990806160904 254.20494938508963 L 117.47330513581994 139.10805130617146 L 203.79597869500859 110.3338267864419 L 261.3444277344677 139.10805130617146 L 290.11865225419723 254.20494938508963 L 203.79597869500859 311.7533984245487 L 117.47330513581994 282.97917390481916 L 88.6990806160904 254.20494938508963" stroke-linecap="round" stroke-linejoin="round" stroke-miterlimit="10" stroke-width="2.5" stroke-opacity="0.9" stroke-dasharray=""/></g><path fill="none" stroke="#2d70b3" class="dcg-svg-point" paint-order="fill stroke markers" d=" M 88.5990806160904 254.10494938508964 L 88.5990806160904 254.30494938508963 L 88.7990806160904 254.30494938508963 L 88.7990806160904 254.10494938508964" stroke-linecap="round" stroke-linejoin="round" stroke-miterlimit="10" stroke-width="7.5" stroke-opacity="0.9" stroke-dasharray=""/><path fill="none" stroke="#2d70b3" class="dcg-svg-point" paint-order="fill stroke markers" d=" M 117.37330513581995 139.00805130617147 L 117.37330513581995 139.20805130617146 L 117.57330513581994 139.20805130617146 L 117.57330513581994 139.00805130617147" stroke-linecap="round" stroke-linejoin="round" stroke-miterlimit="10" stroke-width="7.5" stroke-opacity="0.9" stroke-dasharray=""/><path fill="none" stroke="#2d70b3" class="dcg-svg-point" paint-order="fill stroke markers" d=" M 203.6959786950086 110.23382678644191 L 203.6959786950086 110.4338267864419 L 203.89597869500858 110.4338267864419 L 203.89597869500858 110.23382678644191" stroke-linecap="round" stroke-linejoin="round" stroke-miterlimit="10" stroke-width="7.5" stroke-opacity="0.9" stroke-dasharray=""/><path fill="none" stroke="#2d70b3" class="dcg-svg-point" paint-order="fill stroke markers" d=" M 261.24442773446765 139.00805130617147 L 261.24442773446765 139.20805130617146 L 261.4444277344677 139.20805130617146 L 261.4444277344677 139.00805130617147" stroke-linecap="round" stroke-linejoin="round" stroke-miterlimit="10" stroke-width="7.5" stroke-opacity="0.9" stroke-dasharray=""/><path fill="none" stroke="#2d70b3" class="dcg-svg-point" paint-order="fill stroke markers" d=" M 290.0186522541972 254.10494938508964 L 290.0186522541972 254.30494938508963 L 290.21865225419725 254.30494938508963 L 290.21865225419725 254.10494938508964" stroke-linecap="round" stroke-linejoin="round" stroke-miterlimit="10" stroke-width="7.5" stroke-opacity="0.9" stroke-dasharray=""/><path fill="none" stroke="#2d70b3" class="dcg-svg-point" paint-order="fill stroke markers" d=" M 203.6959786950086 311.6533984245487 L 203.6959786950086 311.85339842454874 L 203.89597869500858 311.85339842454874 L 203.89597869500858 311.6533984245487" stroke-linecap="round" stroke-linejoin="round" stroke-miterlimit="10" stroke-width="7.5" stroke-opacity="0.9" stroke-dasharray=""/><path fill="none" stroke="#2d70b3" class="dcg-svg-point" paint-order="fill stroke markers" d=" M 117.37330513581995 282.87917390481914 L 117.37330513581995 283.0791739048192 L 117.57330513581994 283.0791739048192 L 117.57330513581994 282.87917390481914" stroke-linecap="round" stroke-linejoin="round" stroke-miterlimit="10" stroke-width="7.5" stroke-opacity="0.9" stroke-dasharray=""/><path fill="none" stroke="#2d70b3" class="dcg-svg-point" paint-order="fill stroke markers" d=" M 88.5990806160904 254.10494938508964 L 88.5990806160904 254.30494938508963 L 88.7990806160904 254.30494938508963 L 88.7990806160904 254.10494938508964" stroke-linecap="round" stroke-linejoin="round" stroke-miterlimit="10" stroke-width="7.5" stroke-opacity="0.9" stroke-dasharray=""/></g><g id="sketch-522bc2f2"><title/><path fill="#fa7e19" stroke="none" paint-order="stroke fill markers" d="" fill-opacity="0.4"/><g><path fill="none" stroke="#fa7e19" class="dcg-svg-curve" paint-order="fill stroke markers" d=" M 117.47330513581994 282.97917390481916 L 109.69513054276791 275.20099931176713 M 104.74538307446208 270.2512518434613 L 96.96720848141005 262.4730772504093 M 92.01746101310422 257.5233297821035 L 88.6990806160904 254.20494938508963 M 88.6990806160904 254.20494938508963 L 90.22877740538505 248.08616222791105 M 91.92652678063938 241.29516472689372 L 94.59441865603904 230.62359722529507 M 96.29216803129337 223.83259972427774 L 98.96005990669303 213.1610322226791 M 100.65780928194737 206.37003472166177 L 103.32570115734703 195.69846722006312 M 105.02345053260136 188.9074697190458 L 107.69134240800102 178.23590221744715 M 109.38909178325535 171.44490471642982 L 112.05698365865501 160.77333721483117 M 113.75473303390935 153.98233971381384 L 116.42262490930901 143.3107722122152 M 117.47330513581994 141.77598575351897 L 117.47330513581994 152.77598575351897 M 117.47330513581994 159.77598575351897 L 117.47330513581994 170.77598575351897 M 117.47330513581994 177.77598575351897 L 117.47330513581994 188.77598575351897 M 117.47330513581994 195.77598575351897 L 117.47330513581994 206.77598575351897 M 117.47330513581994 213.77598575351897 L 117.47330513581994 224.77598575351897 M 117.47330513581994 231.77598575351897 L 117.47330513581994 242.77598575351897 M 117.47330513581994 249.77598575351897 L 117.47330513581994 260.77598575351897 M 117.47330513581994 267.77598575351897 L 117.47330513581994 278.77598575351897" stroke-linecap="round" stroke-linejoin="round" stroke-miterlimit="10" stroke-width="2.5" stroke-opacity="0.9" stroke-dasharray=""/></g><path fill="white" stroke="#fa7e19" class="dcg-svg-point" paint-order="fill stroke markers" d=" M 120.62330513581995 282.97917390481916 L 120.62330513581995 282.97917390481916 A 3.15 3.15 0 1 0 120.62330356082008 282.98232390429416 Z" fill-opacity="0.9" stroke-linecap="round" stroke-linejoin="round" stroke-miterlimit="10" stroke-width="1.875" stroke-opacity="0.9" stroke-dasharray=""/><path fill="white" stroke="#fa7e19" class="dcg-svg-point" paint-order="fill stroke markers" d=" M 91.8490806160904 254.20494938508963 L 91.8490806160904 254.20494938508963 A 3.15 3.15 0 1 0 91.84907904109053 254.20809938456463 Z" fill-opacity="0.9" stroke-linecap="round" stroke-linejoin="round" stroke-miterlimit="10" stroke-width="1.875" stroke-opacity="0.9" stroke-dasharray=""/><path fill="white" stroke="#fa7e19" class="dcg-svg-point" paint-order="fill stroke markers" d=" M 120.62330513581995 139.10805130617146 L 120.62330513581995 139.10805130617146 A 3.15 3.15 0 1 0 120.62330356082008 139.11120130564646 Z" fill-opacity="0.9" stroke-linecap="round" stroke-linejoin="round" stroke-miterlimit="10" stroke-width="1.875" stroke-opacity="0.9" stroke-dasharray=""/><path fill="white" stroke="#fa7e19" class="dcg-svg-point" paint-order="fill stroke markers" d=" M 120.62330513581995 282.97917390481916 L 120.62330513581995 282.97917390481916 A 3.15 3.15 0 1 0 120.62330356082008 282.98232390429416 Z" fill-opacity="0.9" stroke-linecap="round" stroke-linejoin="round" stroke-miterlimit="10" stroke-width="1.875" stroke-opacity="0.9" stroke-dasharray=""/></g><g id="sketch-522bc2f2"><title>A</title><path fill="white" stroke="#fa7e19" class="dcg-svg-point" paint-order="fill stroke markers" d=" M 91.4990806160904 254.20494938508963 L 91.4990806160904 254.20494938508963 A 2.8 2.8 0 1 0 91.49907921609052 254.20774938462296 Z" stroke-linecap="round" stroke-linejoin="round" stroke-miterlimit="10" stroke-width="1.6666666666666665" stroke-dasharray=""/></g></g><g id="labels-522bc2f2"><g transform="rotate(0,0,0) translate(88.6990806160904,254.20494938508963)"><g class="dcg-svg-label"><g transform="translate(-21.86296764001618,-9.004952436847447)"><g><text fill="none" stroke="#FFF" font-family="arial, sans-serif" font-size="15.4px" font-style="normal" font-weight="400" text-decoration="normal" x="0" y="13.288803051757812" text-anchor="start" stroke-linecap="round" stroke-linejoin="round" stroke-miterlimit="2" stroke-width="3" stroke-dasharray="">A</text></g></g><g transform="translate(-21.86296764001618,-9.004952436847447)"><g><text fill="rgb(250, 126, 25)" stroke="none" font-family="arial, sans-serif" font-size="15.4px" font-style="normal" font-weight="400" text-decoration="normal" x="0" y="13.288803051757812" text-anchor="start">A</text></g></g></g></g></g></g></svg>