<?xml version="1.0" encoding="UTF-8"?>
<!DOCTYPE svg PUBLIC "-//W3C//DTD SVG 1.1//EN" "http://www.w3.org/Graphics/SVG/1.1/DTD/svg11.dtd">
<svg version="1.2" width="326mm" height="216mm" viewBox="0 0 32600 21600" preserveAspectRatio="xMidYMid" fill-rule="evenodd" stroke-width="28.222" stroke-linejoin="round" xmlns="http://www.w3.org/2000/svg" xmlns:ooo="http://xml.openoffice.org/svg/export" xmlns:xlink="http://www.w3.org/1999/xlink" xmlns:presentation="http://sun.com/xmlns/staroffice/presentation" xmlns:smil="http://www.w3.org/2001/SMIL20/" xmlns:anim="urn:oasis:names:tc:opendocument:xmlns:animation:1.0" xml:space="preserve">
 <defs class="ClipPathGroup">
  <clipPath id="presentation_clip_path" clipPathUnits="userSpaceOnUse">
   <rect x="0" y="0" width="32600" height="21600"/>
  </clipPath>
  <clipPath id="presentation_clip_path_shrink" clipPathUnits="userSpaceOnUse">
   <rect x="32" y="21" width="32535" height="21557"/>
  </clipPath>
 </defs>
 <defs class="TextShapeIndex">
  <g ooo:slide="id1" ooo:id-list="id3 id4 id5"/>
 </defs>
 <defs class="EmbeddedBulletChars">
  <g id="bullet-char-template-57356" transform="scale(0.00048828125,-0.00048828125)">
   <path d="M 580,1141 L 1163,571 580,0 -4,571 580,1141 Z"/>
  </g>
  <g id="bullet-char-template-57354" transform="scale(0.00048828125,-0.00048828125)">
   <path d="M 8,1128 L 1137,1128 1137,0 8,0 8,1128 Z"/>
  </g>
  <g id="bullet-char-template-10146" transform="scale(0.00048828125,-0.00048828125)">
   <path d="M 174,0 L 602,739 174,1481 1456,739 174,0 Z M 1358,739 L 309,1346 659,739 1358,739 Z"/>
  </g>
  <g id="bullet-char-template-10132" transform="scale(0.00048828125,-0.00048828125)">
   <path d="M 2015,739 L 1276,0 717,0 1260,543 174,543 174,936 1260,936 717,1481 1274,1481 2015,739 Z"/>
  </g>
  <g id="bullet-char-template-10007" transform="scale(0.00048828125,-0.00048828125)">
   <path d="M 0,-2 C -7,14 -16,27 -25,37 L 356,567 C 262,823 215,952 215,954 215,979 228,992 255,992 264,992 276,990 289,987 310,991 331,999 354,1012 L 381,999 492,748 772,1049 836,1024 860,1049 C 881,1039 901,1025 922,1006 886,937 835,863 770,784 769,783 710,716 594,584 L 774,223 C 774,196 753,168 711,139 L 727,119 C 717,90 699,76 672,76 641,76 570,178 457,381 L 164,-76 C 142,-110 111,-127 72,-127 30,-127 9,-110 8,-76 1,-67 -2,-52 -2,-32 -2,-23 -1,-13 0,-2 Z"/>
  </g>
  <g id="bullet-char-template-10004" transform="scale(0.00048828125,-0.00048828125)">
   <path d="M 285,-33 C 182,-33 111,30 74,156 52,228 41,333 41,471 41,549 55,616 82,672 116,743 169,778 240,778 293,778 328,747 346,684 L 369,508 C 377,444 397,411 428,410 L 1163,1116 C 1174,1127 1196,1133 1229,1133 1271,1133 1292,1118 1292,1087 L 1292,965 C 1292,929 1282,901 1262,881 L 442,47 C 390,-6 338,-33 285,-33 Z"/>
  </g>
  <g id="bullet-char-template-9679" transform="scale(0.00048828125,-0.00048828125)">
   <path d="M 813,0 C 632,0 489,54 383,161 276,268 223,411 223,592 223,773 276,916 383,1023 489,1130 632,1184 813,1184 992,1184 1136,1130 1245,1023 1353,916 1407,772 1407,592 1407,412 1353,268 1245,161 1136,54 992,0 813,0 Z"/>
  </g>
  <g id="bullet-char-template-8226" transform="scale(0.00048828125,-0.00048828125)">
   <path d="M 346,457 C 273,457 209,483 155,535 101,586 74,649 74,723 74,796 101,859 155,911 209,963 273,989 346,989 419,989 480,963 531,910 582,859 608,796 608,723 608,648 583,586 532,535 482,483 420,457 346,457 Z"/>
  </g>
  <g id="bullet-char-template-8211" transform="scale(0.00048828125,-0.00048828125)">
   <path d="M -4,459 L 1135,459 1135,606 -4,606 -4,459 Z"/>
  </g>
  <g id="bullet-char-template-61548" transform="scale(0.00048828125,-0.00048828125)">
   <path d="M 173,740 C 173,903 231,1043 346,1159 462,1274 601,1332 765,1332 928,1332 1067,1274 1183,1159 1299,1043 1357,903 1357,740 1357,577 1299,437 1183,322 1067,206 928,148 765,148 601,148 462,206 346,322 231,437 173,577 173,740 Z"/>
  </g>
 </defs>
 <g>
  <g id="id2" class="Master_Slide">
   <g id="bg-id2" class="Background"/>
   <g id="bo-id2" class="BackgroundObjects"/>
  </g>
 </g>
 <g class="SlideGroup">
  <g>
   <g id="container-id1">
    <g id="id1" class="Slide" clip-path="url(#presentation_clip_path)">
     <g class="Page">
      <g class="Graphic">
       <g id="id3">
        <rect class="BoundingBox" stroke="none" fill="none" x="100" y="88" width="32401" height="21425"/>
        <path fill="rgb(255,255,255)" stroke="none" d="M 16300,20932 L 31779,20932 C 31857,20932 31920,20869 31920,20791 L 31920,809 C 31920,731 31857,668 31779,668 L 821,668 C 743,668 680,731 680,809 L 680,20791 C 680,20869 743,20932 821,20932 L 16300,20932 Z"/>
        <path fill="rgb(210,217,224)" stroke="none" d="M 32201,176 C 32317,176 32412,271 32412,387 L 32412,21213 C 32412,21329 32317,21424 32201,21424 L 399,21424 C 283,21424 188,21329 188,21213 L 188,387 C 188,271 283,176 399,176 L 32201,176 Z M 32201,106 L 399,106 C 244,106 118,232 118,387 L 118,21213 C 118,21368 244,21494 399,21494 L 32201,21494 C 32356,21494 32482,21368 32482,21213 L 32482,387 C 32482,232 32356,106 32201,106 L 32201,106 32201,106 Z"/>
        <path fill="rgb(240,242,245)" stroke="none" d="M 31321,20369 L 1279,20369 C 1259,20369 1243,20353 1243,20334 1243,20314 1259,20298 1279,20298 L 31321,20298 C 31341,20298 31357,20314 31357,20334 31357,20353 31341,20369 31321,20369 L 31321,20369 Z"/>
        <path fill="rgb(240,242,245)" stroke="none" d="M 31321,19313 L 1279,19313 C 1259,19313 1243,19297 1243,19278 1243,19259 1259,19243 1279,19243 L 31321,19243 C 31341,19243 31357,19259 31357,19278 31357,19297 31341,19313 31321,19313 L 31321,19313 Z"/>
        <path fill="rgb(33,51,69)" stroke="none" d="M 14353,19932 L 14353,19732 14281,19732 14281,19686 14477,19686 14477,19732 14406,19732 14406,19932 14353,19932 14353,19932 Z"/>
        <path fill="rgb(33,51,69)" stroke="none" d="M 14629,19932 L 14629,19824 C 14629,19799 14616,19791 14595,19791 14577,19791 14563,19802 14555,19813 L 14555,19932 14508,19932 14508,19686 14555,19686 14555,19777 C 14566,19764 14589,19750 14617,19750 14656,19750 14675,19771 14675,19806 L 14675,19932 14629,19932 14629,19932 Z"/>
        <path fill="rgb(33,51,69)" stroke="none" d="M 14803,19750 C 14857,19750 14893,19789 14893,19848 L 14893,19858 14760,19858 C 14763,19880 14781,19899 14812,19899 14828,19899 14848,19893 14859,19882 L 14880,19912 C 14862,19929 14834,19937 14806,19937 14752,19937 14711,19900 14711,19843 14711,19791 14749,19749 14803,19749 L 14803,19750 Z M 14760,19826 L 14847,19826 C 14846,19809 14834,19787 14803,19787 14774,19787 14762,19809 14760,19826 L 14760,19826 Z"/>
        <path fill="rgb(33,51,69)" stroke="none" d="M 15128,19932 L 15128,19914 C 15116,19928 15095,19937 15072,19937 15043,19937 15010,19917 15010,19878 15010,19838 15043,19821 15072,19821 15095,19821 15116,19828 15128,19842 L 15128,19818 C 15128,19800 15113,19788 15089,19788 15070,19788 15052,19795 15037,19809 L 15019,19778 C 15041,19758 15069,19750 15097,19750 15138,19750 15175,19766 15175,19817 L 15175,19932 15128,19932 15128,19932 Z M 15128,19867 C 15120,19857 15106,19852 15091,19852 15072,19852 15057,19862 15057,19879 15057,19896 15072,19905 15091,19905 15106,19905 15120,19900 15128,19890 L 15128,19868 15128,19867 Z"/>
        <path fill="rgb(33,51,69)" stroke="none" d="M 15222,19932 L 15222,19686 15269,19686 15269,19932 15222,19932 15222,19932 Z"/>
        <path fill="rgb(33,51,69)" stroke="none" d="M 15315,19932 L 15315,19686 15362,19686 15362,19932 15315,19932 15315,19932 Z"/>
        <path fill="rgb(33,51,69)" stroke="none" d="M 15402,19863 L 15402,19823 15491,19823 15491,19863 15402,19863 15402,19863 Z"/>
        <path fill="rgb(33,51,69)" stroke="none" d="M 15525,19700 C 15525,19684 15538,19672 15553,19672 15568,19672 15581,19684 15581,19700 15581,19715 15569,19728 15553,19728 15538,19728 15525,19715 15525,19700 L 15525,19700 Z M 15530,19932 L 15530,19754 15577,19754 15577,19932 15530,19932 15530,19932 Z"/>
        <path fill="rgb(33,51,69)" stroke="none" d="M 15744,19932 L 15744,19824 C 15744,19800 15731,19791 15711,19791 15693,19791 15678,19802 15670,19813 L 15670,19932 15624,19932 15624,19754 15670,19754 15670,19777 C 15682,19764 15704,19750 15733,19750 15772,19750 15791,19772 15791,19807 L 15791,19932 15744,19932 15744,19932 Z"/>
        <path fill="rgb(33,51,69)" stroke="none" d="M 15831,19863 L 15831,19823 15920,19823 15920,19863 15831,19863 15831,19863 Z"/>
        <path fill="rgb(33,51,69)" stroke="none" d="M 15953,19843 C 15953,19792 15989,19750 16047,19750 16106,19750 16142,19792 16142,19843 16142,19894 16107,19937 16047,19937 15988,19937 15953,19894 15953,19843 L 15953,19843 Z M 16093,19843 C 16093,19815 16077,19791 16047,19791 16018,19791 16002,19815 16002,19843 16002,19871 16018,19895 16047,19895 16077,19895 16093,19871 16093,19843 L 16093,19843 Z"/>
        <path fill="rgb(33,51,69)" stroke="none" d="M 16299,19932 L 16299,19824 C 16299,19800 16286,19791 16266,19791 16247,19791 16233,19802 16225,19813 L 16225,19932 16179,19932 16179,19754 16225,19754 16225,19777 C 16237,19764 16258,19750 16288,19750 16327,19750 16346,19772 16346,19807 L 16346,19932 16299,19932 16299,19932 Z"/>
        <path fill="rgb(33,51,69)" stroke="none" d="M 16473,19750 C 16527,19750 16563,19789 16563,19848 L 16563,19858 16430,19858 C 16433,19880 16451,19899 16482,19899 16498,19899 16518,19893 16529,19882 L 16550,19912 C 16532,19929 16504,19937 16476,19937 16422,19937 16381,19900 16381,19843 16381,19791 16419,19749 16473,19749 L 16473,19750 Z M 16429,19826 L 16517,19826 C 16516,19809 16504,19787 16473,19787 16444,19787 16432,19809 16429,19826 L 16429,19826 Z"/>
        <path fill="rgb(33,51,69)" stroke="none" d="M 16696,19876 C 16709,19888 16735,19900 16757,19900 16778,19900 16787,19893 16787,19883 16787,19870 16772,19866 16751,19861 16721,19855 16681,19848 16681,19806 16681,19776 16708,19750 16755,19750 16785,19750 16809,19760 16826,19774 L 16808,19806 C 16797,19794 16777,19785 16755,19785 16738,19785 16727,19791 16727,19802 16727,19813 16741,19817 16761,19821 16791,19827 16833,19835 16833,19879 16833,19912 16805,19937 16756,19937 16725,19937 16695,19926 16676,19909 L 16696,19876 16696,19876 Z"/>
        <path fill="rgb(33,51,69)" stroke="none" d="M 16880,19888 L 16880,19795 16850,19795 16850,19754 16880,19754 16880,19705 16927,19705 16927,19754 16963,19754 16963,19795 16927,19795 16927,19875 C 16927,19887 16933,19895 16943,19895 16950,19895 16957,19893 16959,19890 L 16969,19925 C 16962,19932 16949,19937 16930,19937 16897,19937 16879,19920 16879,19888 L 16880,19888 Z"/>
        <path fill="rgb(33,51,69)" stroke="none" d="M 17118,19932 L 17118,19910 C 17106,19924 17084,19937 17055,19937 17016,19937 16997,19916 16997,19881 L 16997,19754 17044,19754 17044,19862 C 17044,19887 17057,19895 17077,19895 17095,19895 17109,19885 17118,19875 L 17118,19754 17164,19754 17164,19932 17118,19932 17118,19932 Z"/>
        <path fill="rgb(33,51,69)" stroke="none" d="M 17336,19932 L 17336,19910 C 17322,19927 17302,19937 17281,19937 17236,19937 17202,19903 17202,19843 17202,19784 17235,19750 17281,19750 17302,19750 17322,19759 17336,19777 L 17336,19686 17383,19686 17383,19932 17336,19932 17336,19932 Z M 17336,19812 C 17328,19800 17311,19791 17295,19791 17268,19791 17250,19813 17250,19843 17250,19874 17269,19895 17295,19895 17311,19895 17328,19887 17336,19875 L 17336,19812 17336,19812 Z"/>
        <path fill="rgb(33,51,69)" stroke="none" d="M 17433,19960 C 17438,19962 17444,19963 17448,19963 17461,19963 17469,19960 17473,19950 L 17480,19935 17407,19754 17457,19754 17504,19878 17550,19754 17601,19754 17517,19962 C 17504,19995 17480,20004 17450,20005 17444,20005 17432,20004 17426,20002 L 17433,19960 17433,19960 Z"/>
        <path fill="rgb(33,51,69)" stroke="none" d="M 17824,19932 L 17824,19914 C 17811,19928 17790,19937 17767,19937 17738,19937 17705,19917 17705,19878 17705,19838 17739,19821 17767,19821 17791,19821 17812,19828 17824,19842 L 17824,19818 C 17824,19800 17808,19788 17785,19788 17765,19788 17748,19795 17732,19809 L 17715,19778 C 17737,19758 17765,19750 17793,19750 17833,19750 17871,19766 17871,19817 L 17871,19932 17824,19932 17824,19932 Z M 17824,19867 C 17816,19857 17801,19852 17786,19852 17768,19852 17752,19862 17752,19879 17752,19896 17767,19905 17786,19905 17801,19905 17816,19900 17824,19890 L 17824,19868 17824,19867 Z"/>
        <path fill="rgb(33,51,69)" stroke="none" d="M 17964,20000 L 17917,20000 17917,19754 17964,19754 17964,19777 C 17978,19759 17997,19750 18019,19750 18065,19750 18098,19784 18098,19843 18098,19903 18065,19937 18019,19937 17998,19937 17978,19928 17964,19910 L 17964,20000 17964,20000 Z M 18004,19791 C 17989,19791 17972,19800 17964,19812 L 17964,19875 C 17972,19886 17989,19895 18004,19895 18031,19895 18049,19874 18049,19843 18049,19812 18031,19791 18004,19791 L 18004,19791 Z"/>
        <path fill="rgb(33,51,69)" stroke="none" d="M 18182,20000 L 18136,20000 18136,19754 18182,19754 18182,19777 C 18196,19759 18216,19750 18237,19750 18283,19750 18316,19784 18316,19843 18316,19903 18283,19937 18237,19937 18216,19937 18197,19928 18182,19910 L 18182,20000 18182,20000 Z M 18223,19791 C 18207,19791 18190,19800 18182,19812 L 18182,19875 C 18190,19886 18207,19895 18223,19895 18250,19895 18268,19874 18268,19843 18268,19812 18250,19791 18223,19791 L 18223,19791 Z"/>
        <path fill="rgb(33,51,69)" stroke="none" d="M 27519,19932 L 27482,19811 27444,19932 27394,19932 27340,19754 27388,19754 27422,19874 27461,19754 27502,19754 27541,19874 27575,19754 27624,19754 27570,19932 27520,19932 27519,19932 Z"/>
        <path fill="rgb(33,51,69)" stroke="none" d="M 27821,19932 L 27783,19811 27746,19932 27695,19932 27641,19754 27690,19754 27723,19874 27762,19754 27804,19754 27843,19874 27877,19754 27926,19754 27871,19932 27822,19932 27821,19932 Z"/>
        <path fill="rgb(33,51,69)" stroke="none" d="M 28122,19932 L 28084,19811 28047,19932 27996,19932 27942,19754 27991,19754 28025,19874 28064,19754 28105,19754 28144,19874 28178,19754 28227,19754 28173,19932 28123,19932 28122,19932 Z"/>
        <path fill="rgb(33,51,69)" stroke="none" d="M 28268,19877 C 28284,19877 28297,19890 28297,19906 28297,19923 28284,19936 28268,19936 28251,19936 28238,19923 28238,19906 28238,19890 28251,19877 28268,19877 L 28268,19877 Z"/>
        <path fill="rgb(33,51,69)" stroke="none" d="M 28351,19876 C 28364,19888 28391,19900 28413,19900 28433,19900 28443,19893 28443,19883 28443,19870 28427,19866 28407,19861 28376,19855 28337,19848 28337,19806 28337,19776 28363,19750 28410,19750 28440,19750 28464,19760 28482,19774 L 28463,19806 C 28453,19794 28432,19785 28410,19785 28394,19785 28382,19791 28382,19802 28382,19813 28396,19817 28416,19821 28447,19827 28488,19835 28488,19879 28488,19912 28460,19937 28411,19937 28380,19937 28350,19926 28331,19909 L 28352,19876 28351,19876 Z"/>
        <path fill="rgb(33,51,69)" stroke="none" d="M 28539,19888 L 28539,19795 28509,19795 28509,19754 28539,19754 28539,19705 28586,19705 28586,19754 28622,19754 28622,19795 28586,19795 28586,19875 C 28586,19887 28592,19895 28602,19895 28609,19895 28616,19893 28618,19890 L 28628,19925 C 28621,19932 28608,19937 28589,19937 28556,19937 28538,19920 28538,19888 L 28539,19888 Z"/>
        <path fill="rgb(33,51,69)" stroke="none" d="M 28781,19932 L 28781,19910 C 28769,19924 28747,19937 28718,19937 28679,19937 28660,19916 28660,19881 L 28660,19754 28707,19754 28707,19862 C 28707,19887 28720,19895 28740,19895 28758,19895 28772,19885 28781,19875 L 28781,19754 28827,19754 28827,19932 28781,19932 28781,19932 Z"/>
        <path fill="rgb(33,51,69)" stroke="none" d="M 29002,19932 L 29002,19910 C 28988,19927 28968,19937 28947,19937 28902,19937 28868,19903 28868,19843 28868,19784 28902,19750 28947,19750 28968,19750 28988,19759 29002,19777 L 29002,19686 29049,19686 29049,19932 29002,19932 29002,19932 Z M 29002,19812 C 28994,19800 28978,19791 28962,19791 28935,19791 28917,19813 28917,19843 28917,19874 28935,19895 28962,19895 28978,19895 28994,19887 29002,19875 L 29002,19812 29002,19812 Z"/>
        <path fill="rgb(33,51,69)" stroke="none" d="M 29104,19960 C 29108,19962 29114,19963 29119,19963 29131,19963 29139,19960 29143,19950 L 29150,19935 29077,19754 29128,19754 29174,19878 29221,19754 29271,19754 29188,19962 C 29174,19995 29151,20004 29120,20005 29114,20005 29103,20004 29097,20002 L 29104,19960 29104,19960 Z"/>
        <path fill="rgb(33,51,69)" stroke="none" d="M 29302,19876 C 29315,19888 29341,19900 29363,19900 29384,19900 29393,19893 29393,19883 29393,19870 29378,19866 29357,19861 29327,19855 29287,19848 29287,19806 29287,19776 29314,19750 29361,19750 29391,19750 29415,19760 29432,19774 L 29414,19806 C 29403,19794 29383,19785 29361,19785 29344,19785 29333,19791 29333,19802 29333,19813 29347,19817 29367,19821 29398,19827 29439,19835 29439,19879 29439,19912 29411,19937 29362,19937 29331,19937 29301,19926 29282,19909 L 29302,19876 29302,19876 Z"/>
        <path fill="rgb(33,51,69)" stroke="none" d="M 29699,19932 L 29699,19820 C 29699,19803 29691,19791 29672,19791 29655,19791 29642,19802 29635,19812 L 29635,19932 29588,19932 29588,19820 C 29588,19803 29580,19791 29561,19791 29545,19791 29531,19802 29524,19813 L 29524,19932 29477,19932 29477,19754 29524,19754 29524,19777 C 29532,19767 29555,19750 29583,19750 29610,19750 29626,19762 29632,19782 29642,19766 29666,19750 29693,19750 29726,19750 29746,19767 29746,19803 L 29746,19932 29699,19932 29699,19932 Z"/>
        <path fill="rgb(33,51,69)" stroke="none" d="M 29904,19932 L 29904,19914 C 29892,19928 29871,19937 29847,19937 29819,19937 29786,19917 29786,19878 29786,19838 29819,19821 29847,19821 29871,19821 29892,19828 29904,19842 L 29904,19818 C 29904,19800 29889,19788 29865,19788 29846,19788 29828,19795 29813,19809 L 29795,19778 C 29817,19758 29845,19750 29874,19750 29914,19750 29951,19766 29951,19817 L 29951,19932 29904,19932 29904,19932 Z M 29904,19867 C 29896,19857 29882,19852 29866,19852 29848,19852 29833,19862 29833,19879 29833,19896 29848,19905 29866,19905 29882,19905 29896,19900 29904,19890 L 29904,19868 29904,19867 Z"/>
        <path fill="rgb(33,51,69)" stroke="none" d="M 30001,19932 L 30001,19754 30048,19754 30048,19778 C 30061,19763 30083,19750 30105,19750 L 30105,19796 C 30102,19795 30097,19795 30092,19795 30077,19795 30056,19803 30048,19815 L 30048,19932 30001,19932 30001,19932 Z"/>
        <path fill="rgb(33,51,69)" stroke="none" d="M 30156,19888 L 30156,19795 30126,19795 30126,19754 30156,19754 30156,19705 30203,19705 30203,19754 30239,19754 30239,19795 30203,19795 30203,19875 C 30203,19887 30209,19895 30219,19895 30226,19895 30233,19893 30236,19890 L 30245,19925 C 30238,19932 30226,19937 30206,19937 30174,19937 30156,19920 30156,19888 L 30156,19888 Z"/>
        <path fill="rgb(33,51,69)" stroke="none" d="M 30357,19750 C 30410,19750 30446,19789 30446,19848 L 30446,19858 30313,19858 C 30316,19880 30334,19899 30365,19899 30381,19899 30401,19893 30412,19882 L 30433,19912 C 30415,19929 30387,19937 30359,19937 30305,19937 30264,19900 30264,19843 30264,19791 30302,19749 30356,19749 L 30357,19750 Z M 30313,19826 L 30401,19826 C 30399,19809 30387,19787 30357,19787 30327,19787 30315,19809 30313,19826 L 30313,19826 Z"/>
        <path fill="rgb(33,51,69)" stroke="none" d="M 30485,19932 L 30485,19754 30531,19754 30531,19778 C 30544,19763 30566,19750 30588,19750 L 30588,19796 C 30585,19795 30581,19795 30575,19795 30560,19795 30539,19803 30531,19815 L 30531,19932 30485,19932 30485,19932 Z"/>
        <path fill="rgb(33,51,69)" stroke="none" d="M 30627,19877 C 30643,19877 30657,19890 30657,19906 30657,19923 30643,19936 30627,19936 30611,19936 30597,19923 30597,19906 30597,19890 30611,19877 30627,19877 L 30627,19877 Z"/>
        <path fill="rgb(33,51,69)" stroke="none" d="M 30820,19932 L 30820,19910 C 30808,19924 30786,19937 30757,19937 30718,19937 30699,19916 30699,19881 L 30699,19754 30746,19754 30746,19862 C 30746,19887 30759,19895 30779,19895 30797,19895 30811,19885 30819,19875 L 30819,19754 30866,19754 30866,19932 30819,19932 30820,19932 Z"/>
        <path fill="rgb(33,51,69)" stroke="none" d="M 30924,19876 C 30937,19888 30963,19900 30985,19900 31006,19900 31015,19893 31015,19883 31015,19870 31000,19866 30979,19861 30949,19855 30909,19848 30909,19806 30909,19776 30936,19750 30982,19750 31013,19750 31037,19760 31054,19774 L 31035,19806 C 31025,19794 31005,19785 30983,19785 30966,19785 30955,19791 30955,19802 30955,19813 30969,19817 30989,19821 31019,19827 31060,19835 31060,19879 31060,19912 31033,19937 30983,19937 30952,19937 30923,19926 30904,19909 L 30924,19876 30924,19876 Z"/>
       </g>
      </g>
      <g class="Graphic">
       <g id="id4">
        <rect class="BoundingBox" stroke="none" fill="none" x="1267" y="19320" width="3707" height="972"/>
        <path fill="rgb(45,80,110)" stroke="none" d="M 2408,19911 L 2436,19894 C 2439,19892 2443,19893 2445,19897 2456,19924 2477,19936 2508,19940 2543,19944 2559,19926 2559,19904 2559,19892 2554,19884 2545,19878 2536,19872 2520,19865 2497,19858 2471,19850 2458,19845 2440,19833 2422,19820 2413,19802 2413,19777 2413,19752 2422,19733 2439,19718 2456,19704 2477,19696 2501,19696 2543,19696 2575,19718 2594,19752 2595,19755 2594,19759 2591,19760 L 2564,19777 C 2561,19778 2557,19777 2556,19774 2544,19752 2526,19741 2501,19741 2475,19741 2459,19754 2459,19776 2459,19796 2472,19806 2514,19819 2524,19822 2532,19825 2536,19827 2542,19828 2548,19831 2557,19834 2566,19838 2572,19842 2577,19846 2591,19857 2607,19876 2605,19903 2605,19928 2596,19948 2578,19963 2560,19977 2537,19986 2508,19984 2457,19982 2423,19957 2406,19918 2404,19916 2405,19912 2408,19911 L 2408,19911 Z"/>
        <path fill="rgb(45,80,110)" stroke="none" d="M 3149,19702 L 3182,19702 C 3185,19702 3187,19704 3187,19706 L 3187,19975 C 3187,19977 3185,19979 3182,19979 L 3149,19979 C 3147,19979 3145,19977 3145,19975 L 3145,19951 C 3129,19974 3106,19985 3076,19985 3049,19985 3027,19975 3008,19955 2989,19934 2979,19909 2979,19880 2979,19851 2989,19826 3008,19806 3027,19786 3049,19776 3076,19776 3106,19776 3129,19787 3145,19809 L 3145,19706 C 3145,19704 3147,19702 3149,19702 L 3149,19702 Z M 3083,19944 C 3101,19944 3115,19938 3127,19926 3139,19914 3145,19898 3145,19880 3145,19862 3139,19847 3127,19834 3115,19822 3101,19816 3083,19816 3065,19816 3051,19822 3039,19834 3027,19847 3021,19862 3021,19880 3021,19898 3027,19913 3039,19926 3051,19938 3065,19944 3083,19944 L 3083,19944 Z"/>
        <path fill="rgb(45,80,110)" stroke="none" d="M 3374,19781 L 3407,19781 C 3410,19781 3411,19784 3410,19786 L 3339,19982 C 3321,20031 3291,20056 3250,20055 3247,20055 3244,20052 3244,20049 L 3244,20020 C 3244,20018 3246,20015 3249,20015 3272,20015 3286,20002 3296,19976 L 3271,19917 3215,19787 C 3214,19784 3216,19781 3219,19781 L 3253,19781 C 3257,19781 3260,19783 3261,19787 L 3317,19925 3365,19787 C 3367,19783 3370,19781 3374,19781 L 3374,19781 Z"/>
        <path fill="rgb(45,80,110)" stroke="none" d="M 2852,19985 C 2807,19985 2764,19951 2764,19900 L 2764,19786 C 2764,19783 2766,19781 2768,19781 L 2801,19781 C 2804,19781 2806,19783 2806,19786 L 2806,19891 C 2806,19920 2826,19945 2852,19945 2879,19945 2899,19920 2899,19891 L 2899,19786 C 2899,19783 2901,19781 2904,19781 L 2936,19781 C 2939,19781 2941,19783 2941,19786 L 2941,19900 C 2941,19950 2897,19985 2852,19985 L 2852,19985 Z"/>
        <path fill="rgb(45,80,110)" stroke="none" d="M 2728,19818 L 2728,19786 C 2728,19783 2726,19781 2723,19781 L 2679,19781 2679,19727 C 2679,19724 2676,19722 2673,19724 L 2641,19743 C 2638,19745 2637,19747 2637,19749 L 2637,19918 C 2637,19962 2656,19981 2702,19981 L 2723,19981 C 2726,19981 2728,19979 2728,19977 L 2728,19947 C 2728,19944 2726,19942 2723,19942 L 2709,19942 C 2689,19942 2680,19937 2680,19918 L 2680,19822 2723,19822 C 2725,19822 2728,19820 2728,19818 L 2728,19818 Z"/>
        <path fill="rgb(45,80,110)" stroke="none" d="M 3437,19911 L 3465,19894 C 3468,19892 3473,19893 3474,19897 3485,19924 3506,19936 3538,19940 3572,19944 3588,19926 3588,19904 3588,19892 3584,19884 3575,19878 3566,19872 3549,19865 3526,19858 3500,19850 3487,19845 3469,19833 3451,19820 3442,19802 3442,19777 3442,19752 3451,19733 3468,19718 3485,19704 3506,19696 3530,19696 3572,19696 3604,19718 3623,19752 3624,19755 3623,19759 3621,19760 L 3593,19777 C 3590,19778 3586,19777 3585,19774 3574,19752 3555,19741 3530,19741 3504,19741 3488,19754 3488,19776 3488,19796 3501,19806 3543,19819 3553,19822 3561,19825 3566,19827 3571,19828 3577,19831 3586,19834 3595,19838 3602,19842 3606,19846 3620,19857 3636,19876 3634,19903 3634,19928 3625,19948 3607,19963 3589,19977 3566,19986 3537,19984 3486,19982 3453,19957 3436,19918 3434,19916 3435,19912 3437,19911 L 3437,19911 Z"/>
        <path fill="rgb(45,80,110)" stroke="none" d="M 4457,19818 L 4457,19786 C 4457,19783 4455,19781 4452,19781 L 4408,19781 4408,19727 C 4408,19724 4405,19722 4403,19724 L 4370,19743 C 4368,19745 4367,19747 4367,19749 L 4367,19918 C 4367,19962 4385,19981 4431,19981 L 4452,19981 C 4455,19981 4457,19979 4457,19977 L 4457,19947 C 4457,19944 4455,19942 4452,19942 L 4438,19942 C 4418,19942 4409,19937 4409,19918 L 4409,19822 4452,19822 C 4454,19822 4457,19820 4457,19818 L 4457,19818 Z"/>
        <path fill="rgb(45,80,110)" stroke="none" d="M 3874,19776 C 3851,19776 3827,19785 3808,19809 3790,19785 3765,19776 3742,19776 3697,19776 3665,19807 3665,19856 L 3665,19975 C 3665,19977 3667,19979 3669,19979 L 3702,19979 C 3705,19979 3707,19977 3707,19975 L 3707,19859 C 3707,19832 3721,19816 3745,19816 3771,19816 3788,19833 3788,19868 L 3788,19975 C 3788,19977 3790,19979 3792,19979 L 3825,19979 C 3828,19979 3830,19977 3830,19975 L 3830,19868 C 3830,19834 3846,19816 3873,19816 3896,19816 3911,19832 3911,19859 L 3911,19975 C 3911,19977 3912,19979 3915,19979 L 3948,19979 C 3951,19979 3953,19977 3953,19975 L 3953,19856 C 3952,19807 3919,19776 3874,19776 L 3874,19776 Z"/>
        <path fill="rgb(45,80,110)" stroke="none" d="M 4152,19781 L 4184,19781 C 4187,19781 4189,19783 4189,19786 L 4189,19975 C 4189,19977 4187,19979 4184,19979 L 4152,19979 C 4149,19979 4147,19977 4147,19975 L 4147,19951 C 4131,19974 4108,19985 4079,19985 4051,19985 4029,19975 4010,19954 3991,19934 3981,19909 3981,19880 3981,19850 3991,19826 4010,19806 4029,19785 4051,19775 4079,19775 4108,19775 4131,19786 4147,19808 L 4147,19785 C 4147,19783 4149,19781 4152,19781 L 4152,19781 Z M 4085,19944 C 4103,19944 4117,19938 4129,19926 4141,19914 4147,19898 4147,19880 4147,19862 4141,19847 4129,19834 4117,19822 4103,19816 4085,19816 4068,19816 4053,19822 4041,19834 4029,19847 4023,19862 4023,19880 4023,19898 4029,19913 4041,19926 4053,19938 4068,19944 4085,19944 L 4085,19944 Z"/>
        <path fill="rgb(45,80,110)" stroke="none" d="M 4275,19814 C 4284,19791 4303,19778 4330,19777 4332,19777 4334,19779 4334,19782 L 4334,19819 C 4334,19821 4332,19823 4330,19823 4315,19823 4303,19827 4292,19835 4280,19844 4274,19859 4274,19879 L 4274,19975 C 4274,19977 4272,19979 4269,19979 L 4237,19979 C 4234,19979 4232,19977 4232,19975 L 4232,19786 C 4232,19783 4234,19781 4237,19781 L 4269,19781 C 4272,19781 4274,19783 4274,19786 L 4274,19814 4275,19814 Z"/>
        <path fill="rgb(45,80,110)" stroke="none" d="M 4746,19814 C 4756,19791 4775,19778 4801,19777 4804,19777 4806,19779 4806,19782 L 4806,19819 C 4806,19821 4804,19823 4801,19823 4787,19823 4775,19827 4764,19835 4752,19844 4746,19859 4746,19879 L 4746,19975 C 4746,19977 4744,19979 4741,19979 L 4708,19979 C 4705,19979 4703,19977 4703,19975 L 4703,19786 C 4703,19783 4705,19781 4708,19781 L 4741,19781 C 4744,19781 4746,19783 4746,19786 L 4746,19814 4746,19814 Z"/>
        <path fill="rgb(45,80,110)" stroke="none" d="M 4516,19899 C 4522,19929 4545,19946 4578,19946 4599,19946 4615,19938 4626,19924 4628,19922 4630,19922 4632,19923 L 4659,19939 C 4661,19940 4662,19944 4660,19946 4641,19972 4614,19985 4578,19985 4546,19985 4520,19975 4501,19955 4481,19935 4471,19910 4471,19880 4471,19850 4481,19826 4500,19806 4519,19786 4545,19776 4574,19776 4603,19776 4626,19786 4645,19806 4663,19826 4672,19851 4672,19880 4672,19884 4672,19889 4671,19894 4671,19896 4669,19898 4666,19898 L 4516,19898 4516,19899 Z M 4630,19863 C 4624,19831 4602,19815 4574,19815 4543,19815 4521,19834 4515,19863 L 4630,19863 4630,19863 Z"/>
        <defs>
         <clipPath id="clip_path_1" clipPathUnits="userSpaceOnUse">
          <path d="M 1878,20111 L 1900,20083 2015,20016 C 2032,20005 2043,19987 2043,19967 L 2043,19893 C 2043,19889 2042,19883 2041,19878 L 2027,19854 C 2023,19850 2019,19847 2015,19845 L 1882,19766 C 1873,19762 1864,19759 1854,19759 1845,19759 1835,19761 1827,19766 L 1694,19845 C 1690,19847 1686,19850 1682,19854 L 1668,19878 C 1667,19883 1666,19888 1666,19893 L 1666,19967 C 1666,19987 1677,20005 1694,20016 L 1809,20083 1828,20114 1806,20136 1669,20056 C 1638,20038 1619,20005 1619,19968 L 1619,19892 C 1619,19880 1621,19868 1625,19857 L 1625,19856 1641,19828 1641,19828 C 1649,19818 1658,19810 1668,19805 L 1802,19726 C 1819,19716 1830,19697 1830,19677 L 1830,19540 1852,19514 1877,19540 1877,19677 C 1877,19697 1887,19715 1904,19725 L 2038,19804 C 2049,19810 2058,19818 2065,19827 L 2066,19828 2081,19856 2082,19857 C 2086,19868 2088,19880 2088,19892 L 2088,19968 C 2088,20005 2069,20038 2038,20056 L 1901,20136 1878,20111 1878,20111 Z"/>
         </clipPath>
        </defs>
        <g clip-path="url(#clip_path_1)">
         <path fill="rgb(30,140,200)" stroke="none" d="M 1619,20163 L 1619,20044 2088,20044 2088,20163 1619,20163 Z"/>
         <path fill="rgb(30,140,200)" stroke="none" d="M 1619,20110 L 1619,19961 2088,19961 2088,20110 1619,20110 Z"/>
         <path fill="rgb(30,140,200)" stroke="none" d="M 1619,20027 L 1619,19921 2088,19921 2088,20027 1619,20027 Z"/>
         <path fill="rgb(29,132,196)" stroke="none" d="M 1619,19988 L 1619,19891 2088,19891 2088,19988 1619,19988 Z"/>
         <path fill="rgb(28,121,192)" stroke="none" d="M 1619,19957 L 1619,19861 2088,19861 2088,19957 1619,19957 Z"/>
         <path fill="rgb(27,110,187)" stroke="none" d="M 1619,19927 L 1619,19826 2088,19826 2088,19927 1619,19927 Z"/>
         <path fill="rgb(25,95,180)" stroke="none" d="M 1619,19892 L 1619,19794 2088,19794 2088,19892 1619,19892 Z"/>
         <path fill="rgb(23,111,182)" stroke="none" d="M 1619,19860 L 1619,19762 2088,19762 2088,19860 1619,19860 Z"/>
         <path fill="rgb(20,132,185)" stroke="none" d="M 1619,19828 L 1619,19730 2088,19730 2088,19828 1619,19828 Z"/>
         <path fill="rgb(18,152,187)" stroke="none" d="M 1619,19797 L 1619,19699 2088,19699 2088,19797 1619,19797 Z"/>
         <path fill="rgb(15,175,190)" stroke="none" d="M 1619,19766 L 1619,19641 2088,19641 2088,19766 1619,19766 Z"/>
         <path fill="rgb(12,183,188)" stroke="none" d="M 1619,19708 L 1619,19597 2088,19597 2088,19708 1619,19708 Z"/>
         <path fill="rgb(9,194,186)" stroke="none" d="M 1619,19663 L 1619,19553 2088,19553 2088,19663 1619,19663 Z"/>
         <path fill="rgb(5,204,184)" stroke="none" d="M 1619,19619 L 1619,19500 2088,19500 2088,19619 1619,19619 Z"/>
         <path fill="rgb(0,220,180)" stroke="none" d="M 1619,19566 L 1619,19474 2088,19474 2088,19566 1619,19566 Z"/>
        </g>
        <defs>
         <clipPath id="clip_path_2" clipPathUnits="userSpaceOnUse">
          <path d="M 1854,20149 C 1837,20149 1820,20144 1805,20135 L 1803,20134 1805,20080 1808,20082 C 1811,20084 1813,20084 1816,20084 1823,20084 1831,20078 1831,20069 L 1831,20017 C 1831,19997 1820,19978 1803,19968 L 1479,19778 C 1459,19766 1447,19746 1447,19722 1447,19699 1459,19678 1479,19667 L 1805,19475 C 1820,19466 1837,19462 1854,19462 1872,19462 1889,19466 1904,19475 L 2230,19667 C 2250,19678 2262,19699 2262,19722 2262,19746 2250,19766 2230,19778 L 1906,19969 C 1889,19979 1878,19997 1878,20018 L 1878,20070 C 1878,20074 1880,20078 1882,20081 1885,20084 1889,20085 1893,20085 1895,20085 1898,20085 1900,20083 L 1904,20081 1906,20135 1904,20136 C 1889,20144 1872,20149 1854,20149 L 1854,20149 Z M 1816,19526 C 1814,19526 1811,19527 1808,19528 L 1500,19709 C 1495,19712 1492,19717 1492,19722 1492,19728 1495,19733 1500,19735 L 1826,19927 C 1835,19932 1844,19935 1854,19935 1863,19935 1873,19933 1882,19927 L 2208,19735 C 2213,19733 2216,19728 2216,19722 2216,19717 2213,19712 2208,19709 L 1900,19528 C 1897,19527 1895,19526 1892,19526 1885,19526 1877,19532 1877,19541 L 1877,19544 1830,19544 1830,19541 C 1831,19532 1823,19526 1816,19526 L 1816,19526 Z"/>
         </clipPath>
        </defs>
        <g clip-path="url(#clip_path_2)">
         <path fill="rgb(30,140,200)" stroke="none" d="M 1447,20167 L 1447,20058 2262,20058 2262,20167 1447,20167 Z"/>
         <path fill="rgb(30,140,200)" stroke="none" d="M 1447,20102 L 1447,20032 2262,20032 2262,20102 1447,20102 Z"/>
         <path fill="rgb(28,144,199)" stroke="none" d="M 1447,20076 L 1447,20006 2262,20006 2262,20076 1447,20076 Z"/>
         <path fill="rgb(27,148,198)" stroke="none" d="M 1447,20050 L 1447,19980 2262,19980 2262,20050 1447,20050 Z"/>
         <path fill="rgb(25,152,198)" stroke="none" d="M 1447,20024 L 1447,19954 2262,19954 2262,20024 1447,20024 Z"/>
         <path fill="rgb(24,155,197)" stroke="none" d="M 1447,19998 L 1447,19928 2262,19928 2262,19998 1447,19998 Z"/>
         <path fill="rgb(22,159,196)" stroke="none" d="M 1447,19972 L 1447,19902 2262,19902 2262,19972 1447,19972 Z"/>
         <path fill="rgb(21,163,195)" stroke="none" d="M 1447,19946 L 1447,19876 2262,19876 2262,19946 1447,19946 Z"/>
         <path fill="rgb(19,167,195)" stroke="none" d="M 1447,19920 L 1447,19850 2262,19850 2262,19920 1447,19920 Z"/>
         <path fill="rgb(18,171,194)" stroke="none" d="M 1447,19894 L 1447,19825 2262,19825 2262,19894 1447,19894 Z"/>
         <path fill="rgb(16,175,193)" stroke="none" d="M 1447,19868 L 1447,19799 2262,19799 2262,19868 1447,19868 Z"/>
         <path fill="rgb(15,178,192)" stroke="none" d="M 1447,19843 L 1447,19773 2262,19773 2262,19843 1447,19843 Z"/>
         <path fill="rgb(13,182,192)" stroke="none" d="M 1447,19817 L 1447,19747 2262,19747 2262,19817 1447,19817 Z"/>
         <path fill="rgb(12,186,191)" stroke="none" d="M 1447,19791 L 1447,19721 2262,19721 2262,19791 1447,19791 Z"/>
         <path fill="rgb(10,190,190)" stroke="none" d="M 1447,19765 L 1447,19697 2262,19697 2262,19765 1447,19765 Z"/>
         <path fill="rgb(9,192,189)" stroke="none" d="M 1447,19740 L 1447,19672 2262,19672 2262,19740 1447,19740 Z"/>
         <path fill="rgb(9,193,189)" stroke="none" d="M 1447,19716 L 1447,19648 2262,19648 2262,19716 1447,19716 Z"/>
         <path fill="rgb(8,195,188)" stroke="none" d="M 1447,19692 L 1447,19621 2262,19621 2262,19692 1447,19692 Z"/>
         <path fill="rgb(7,199,187)" stroke="none" d="M 1447,19665 L 1447,19593 2262,19593 2262,19665 1447,19665 Z"/>
         <path fill="rgb(5,204,185)" stroke="none" d="M 1447,19637 L 1447,19566 2262,19566 2262,19637 1447,19637 Z"/>
         <path fill="rgb(4,208,184)" stroke="none" d="M 1447,19610 L 1447,19542 2262,19542 2262,19610 1447,19610 Z"/>
         <path fill="rgb(2,214,182)" stroke="none" d="M 1447,19586 L 1447,19517 2262,19517 2262,19586 1447,19586 Z"/>
         <path fill="rgb(0,220,180)" stroke="none" d="M 1447,19561 L 1447,19435 2262,19435 2262,19561 1447,19561 Z"/>
        </g>
       </g>
      </g>
      <g class="Graphic">
       <g id="id5">
        <rect class="BoundingBox" stroke="none" fill="none" x="1381" y="1486" width="30687" height="17184"/>
        <path fill="rgb(255,255,255)" stroke="none" d="M 16724,18659 L 1391,18659 1391,1496 32057,1496 32057,18659 16724,18659 Z"/>
        <path fill="rgb(20,120,200)" fill-opacity="0.102" stroke="rgb(255,255,255)" stroke-opacity="0.102" d="M 9036,15019 L 16240,12618 18641,3014 9036,15019 Z"/>
        <g style="opacity: 0.698039215686274">
         <path fill="none" stroke="rgb(131,99,226)" stroke-width="71" stroke-linejoin="round" stroke-linecap="round" d="M 11805,10175 C 13238,11543 15049,12449 17002,12777"/>
        </g>
        <g style="opacity: 0.698039215686274">
         <path fill="none" stroke="rgb(0,220,180)" stroke-width="51" stroke-linejoin="round" stroke-linecap="round" d="M 16538,13844 C 16217,11794 15071,9965 13366,8781"/>
        </g>
        <g style="opacity: 0.698039215686274">
         <path fill="none" stroke="rgb(20,120,200)" stroke-width="71" stroke-linejoin="round" stroke-linecap="round" d="M 9036,15019 L 16240,12618"/>
        </g>
        <g style="opacity: 0.698039215686274">
         <path fill="none" stroke="rgb(20,120,200)" stroke-width="71" stroke-linejoin="round" stroke-linecap="round" d="M 16240,12618 L 18641,3014"/>
        </g>
        <g style="opacity: 0.698039215686274">
         <path fill="none" stroke="rgb(20,120,200)" stroke-width="71" stroke-linejoin="round" stroke-linecap="round" d="M 18641,3014 L 9036,15019"/>
        </g>
        <path fill="rgb(0,0,0)" stroke="none" d="M 8383,15308 C 8388,15301 8394,15297 8402,15296 8409,15296 8413,15298 8414,15303 8414,15305 8415,15308 8415,15313 L 8459,15756 C 8460,15768 8463,15775 8467,15777 L 8468,15777 8468,15778 C 8473,15780 8486,15781 8505,15781 8515,15781 8520,15784 8521,15789 8521,15799 8517,15803 8508,15803 L 8429,15801 8428,15801 8340,15803 8339,15803 C 8333,15803 8330,15801 8330,15795 8333,15786 8339,15782 8347,15781 8381,15781 8398,15773 8398,15758 8398,15758 8394,15719 8386,15640 L 8208,15640 8155,15730 C 8148,15742 8145,15751 8145,15756 8145,15771 8156,15779 8178,15781 8186,15781 8189,15784 8189,15790 8189,15799 8185,15803 8176,15803 L 8108,15801 8105,15801 8045,15803 8044,15803 C 8038,15803 8035,15801 8035,15795 8035,15787 8038,15782 8045,15782 L 8045,15781 8050,15781 C 8079,15779 8104,15767 8123,15743 8127,15737 8132,15730 8137,15722 L 8383,15308 Z M 8222,15618 L 8384,15618 8361,15384 8222,15618 Z"/>
        <path fill="rgb(0,0,0)" stroke="none" d="M 19007,2435 C 19009,2427 19010,2423 19010,2421 19010,2416 19006,2412 18999,2411 L 18998,2411 18997,2411 C 18996,2411 18994,2410 18991,2410 18983,2409 18974,2409 18964,2409 18952,2409 18945,2406 18944,2401 18944,2392 18948,2388 18955,2387 L 18955,2387 18956,2387 18965,2387 19203,2387 C 19257,2387 19296,2403 19319,2435 19329,2450 19334,2466 19334,2484 19334,2523 19313,2556 19271,2584 19270,2584 19270,2585 19269,2585 19244,2601 19216,2612 19186,2618 19234,2623 19268,2642 19285,2674 19293,2687 19296,2702 19296,2717 19296,2752 19280,2784 19246,2814 L 19246,2815 C 19205,2852 19157,2870 19101,2870 L 18848,2870 C 18836,2870 18829,2868 18829,2863 18829,2854 18832,2849 18839,2848 L 18848,2848 C 18878,2848 18897,2845 18903,2839 18906,2835 18909,2829 18911,2819 18911,2818 18912,2817 18912,2815 L 19007,2435 Z M 19123,2611 C 19169,2611 19208,2594 19238,2560 19259,2536 19270,2510 19270,2482 19270,2447 19256,2425 19227,2414 19217,2410 19206,2409 19193,2409 L 19101,2409 C 19084,2409 19074,2411 19070,2416 L 19070,2416 19069,2416 19069,2417 C 19067,2420 19065,2426 19063,2436 L 19019,2611 19123,2611 Z M 18987,2848 L 19084,2848 C 19129,2848 19166,2831 19196,2797 19219,2771 19230,2742 19230,2710 19230,2675 19218,2651 19193,2637 19181,2630 19166,2627 19149,2627 L 19015,2627 18966,2824 C 18964,2833 18962,2838 18962,2841 18962,2844 18965,2847 18969,2848 L 18972,2848 C 18974,2848 18980,2848 18987,2848 Z"/>
        <path fill="rgb(0,0,0)" stroke="none" d="M 16908,11971 L 16864,12152 C 16861,12161 16859,12165 16856,12166 L 16856,12166 16851,12166 C 16844,12166 16840,12164 16840,12159 L 16842,12124 16842,12123 C 16842,12065 16824,12024 16787,12002 L 16786,12001 C 16770,11991 16750,11986 16728,11986 16678,11986 16631,12005 16586,12042 16575,12051 16564,12061 16555,12072 16511,12124 16483,12191 16473,12272 16471,12286 16470,12299 16470,12310 16470,12376 16495,12421 16545,12444 16564,12453 16585,12457 16609,12457 16653,12457 16696,12440 16739,12406 16772,12378 16796,12341 16810,12294 16811,12289 16814,12287 16820,12287 16825,12287 16828,12289 16828,12294 16828,12302 16823,12317 16812,12339 16797,12369 16777,12395 16750,12418 16703,12459 16652,12479 16597,12479 16537,12479 16488,12459 16452,12417 16421,12382 16405,12338 16405,12285 16405,12215 16431,12149 16482,12088 16530,12031 16587,11993 16652,11974 16676,11968 16699,11964 16723,11964 16774,11964 16813,11985 16840,12027 L 16890,11973 C 16895,11967 16899,11964 16900,11964 16906,11964 16908,11967 16908,11971 L 16908,11971 Z"/>
        <path fill="rgb(0,0,0)" stroke="none" d="M 11517,10672 C 11519,10665 11520,10660 11520,10659 11520,10653 11516,10649 11508,10648 L 11508,10648 C 11507,10648 11506,10647 11504,10647 11493,10646 11483,10646 11474,10646 11461,10646 11455,10644 11454,10640 11453,10639 11453,10638 11453,10637 11453,10629 11457,10625 11465,10624 L 11474,10624 11713,10624 C 11774,10624 11820,10648 11850,10696 11869,10726 11879,10762 11879,10803 11879,10872 11855,10936 11807,10995 11762,11050 11709,11086 11647,11101 11629,11105 11611,11108 11592,11108 L 11358,11108 C 11346,11108 11339,11106 11338,11102 11338,11102 11338,11101 11338,11099 11338,11091 11342,11087 11349,11086 L 11358,11086 C 11388,11086 11407,11083 11413,11076 11416,11073 11419,11066 11421,11056 11421,11056 11422,11054 11422,11053 L 11517,10672 Z M 11575,10673 L 11478,11062 C 11476,11070 11474,11076 11474,11078 11474,11082 11477,11084 11481,11085 L 11484,11085 C 11487,11086 11492,11086 11499,11086 L 11579,11086 C 11638,11086 11688,11064 11731,11020 11735,11015 11739,11010 11743,11006 11781,10957 11805,10892 11815,10813 11816,10798 11817,10786 11817,10777 11817,10714 11793,10673 11743,10655 11727,10649 11709,10646 11689,10646 L 11613,10646 C 11596,10646 11586,10648 11582,10653 L 11582,10654 11581,10654 11581,10654 C 11580,10657 11577,10663 11575,10673 Z"/>
        <path fill="rgb(0,0,0)" stroke="none" d="M 13916,8251 L 13916,8251 13851,8404 C 13848,8411 13845,8414 13841,8415 L 13841,8415 13840,8415 C 13838,8416 13835,8416 13829,8416 L 13461,8416 C 13449,8416 13443,8414 13442,8410 13442,8410 13441,8409 13441,8407 13441,8399 13445,8395 13453,8394 L 13461,8394 C 13492,8394 13510,8391 13517,8384 13519,8381 13522,8374 13525,8364 13525,8364 13525,8363 13526,8361 L 13619,7986 C 13622,7977 13623,7972 13623,7969 13623,7961 13612,7957 13590,7956 L 13590,7956 13577,7956 C 13564,7956 13558,7954 13557,7948 13557,7940 13561,7935 13568,7934 L 13578,7934 13936,7934 C 13947,7934 13953,7936 13954,7939 L 13955,7939 C 13956,7942 13956,7947 13955,7953 L 13941,8076 C 13938,8087 13934,8093 13931,8094 13925,8094 13922,8091 13922,8085 L 13923,8073 13923,8072 C 13925,8060 13926,8047 13926,8035 13926,8002 13917,7980 13898,7970 13883,7961 13856,7956 13818,7956 L 13718,7956 C 13701,7956 13691,7959 13687,7964 L 13687,7964 13687,7965 C 13685,7967 13684,7969 13683,7973 L 13683,7974 13682,7975 C 13682,7977 13681,7980 13680,7984 L 13638,8155 13704,8155 C 13740,8155 13764,8147 13776,8133 13783,8124 13790,8108 13797,8084 13799,8076 13802,8072 13807,8072 13813,8072 13816,8074 13816,8079 L 13775,8245 C 13773,8254 13769,8259 13765,8259 13758,8259 13755,8257 13755,8252 13755,8250 13756,8247 13757,8244 13761,8230 13762,8218 13762,8209 13762,8196 13759,8188 13752,8184 13743,8179 13726,8177 13702,8177 L 13632,8177 13584,8370 C 13581,8378 13580,8384 13580,8386 13580,8390 13582,8392 13587,8393 L 13587,8393 13587,8393 13590,8393 C 13592,8394 13598,8394 13605,8394 L 13709,8394 C 13766,8394 13809,8381 13836,8354 13854,8337 13874,8305 13895,8259 13897,8254 13899,8248 13902,8242 13904,8236 13907,8233 13911,8233 13917,8233 13920,8236 13920,8241 13920,8241 13918,8245 13916,8251 L 13916,8251 Z"/>
       </g>
      </g>
     </g>
    </g>
   </g>
  </g>
 </g>
</svg>